<?xml version="1.0" encoding="UTF-8" standalone="no" ?>
<!DOCTYPE svg PUBLIC "-//W3C//DTD SVG 1.1//EN" "http://www.w3.org/Graphics/SVG/1.1/DTD/svg11.dtd">
<svg xmlns="http://www.w3.org/2000/svg" xmlns:xlink="http://www.w3.org/1999/xlink" version="1.1" width="1080" height="1080" viewBox="0 0 1080 1080" xml:space="preserve">
<desc>Created with Fabric.js 5.2.4</desc>
<defs>
</defs>
<g transform="matrix(1 0 0 1 540 540)" id="f078c7cb-973c-4dfc-8947-37da66b3159f"  >
<rect style="stroke: none; stroke-width: 1; stroke-dasharray: none; stroke-linecap: butt; stroke-dashoffset: 0; stroke-linejoin: miter; stroke-miterlimit: 4; fill: rgb(255,255,255); fill-rule: nonzero; opacity: 1; visibility: hidden;" vector-effect="non-scaling-stroke"  x="-540" y="-540" rx="0" ry="0" width="1080" height="1080" />
</g>
<g transform="matrix(1 0 0 1 540 540)" id="3dd6f117-d2fb-40d5-9119-c4852d044ae5"  >
</g>
<g transform="matrix(111.27 0 0 111.27 540 521.44)" id="7b496fed-2123-4641-b429-913fb78d9764"  >
<path style="stroke: rgb(0,0,0); stroke-width: 0; stroke-dasharray: none; stroke-linecap: butt; stroke-dashoffset: 0; stroke-linejoin: miter; stroke-miterlimit: 4; fill: rgb(0,0,0); fill-rule: nonzero; opacity: 1;" vector-effect="non-scaling-stroke"  transform=" translate(-12.1, -14.93)" d="M 12.09 15.46 L 9.91 13.01 L 9.9 17.36 L 11.18 18.76 Q 9.9 18 8.73 17.86 Q 9.9 13.93 8.18 11.1 Q 9.39 11.99 10.34 11.7 Q 10.85 13.51 12.09 13.87 Q 13.34 13.51 13.85 11.7 Q 14.8 11.99 16.01 11.1 Q 14.29 13.93 15.46 17.86 Q 14.29 18 13.01 18.76 L 14.29 17.36 L 14.27 13.01 L 12.09 15.46 z" stroke-linecap="round" />
</g>
</svg>